<?xml version="1.0" encoding="UTF-8" standalone="no"?>
<svg width="200px" height="200px" viewBox="0 0 200 200" version="1.1" xmlns="http://www.w3.org/2000/svg" xmlns:xlink="http://www.w3.org/1999/xlink">
    <!-- Generator: Sketch 46.2 (44496) - http://www.bohemiancoding.com/sketch -->
    <title>Artboard 2</title>
    <desc>Created with Sketch.</desc>
    <defs>
        <polygon id="path-1" points="0 83 73.263784 76.6008938 150 -1.36557432e-14"></polygon>
        <polygon id="path-3" points="146 95 145.868789 95 0 6.61015051 75.0060029 -4.74342787e-14 146 95"></polygon>
        <polygon id="path-5" points="73.940466 176 73.9121565 176 -3.46944695e-18 77.4040975 77 0 73.940466 176"></polygon>
    </defs>
    <g id="Page-1" stroke="none" stroke-width="1" fill="none" fill-rule="evenodd">
        <g id="Artboard-2">
            <g id="Group" transform="translate(8.000000, 11.000000)">
                <g id="Group-7" transform="translate(2.000000, 0.000000)">
                    <mask id="mask-2" fill="white">
                        <use xlink:href="#path-1"></use>
                    </mask>
                    <g id="Clip-6"></g>
                    <polygon id="Fill-5" fill="#FFB400" mask="url(#mask-2)" points="31.4348117 -35.721519 152.112676 -1.07057311 117.50885 119.772152 -3.16901408 85.1210323"></polygon>
                </g>
                <g id="Group-10" transform="translate(0.000000, 84.000000)">
                    <mask id="mask-4" fill="white">
                        <use xlink:href="#path-3"></use>
                    </mask>
                    <g id="Clip-9"></g>
                    <polygon id="Fill-8" fill="#35495E" mask="url(#mask-4)" points="6.01077793 -22.1666667 168.057554 24.5214406 147.341711 97.1111111 -14.705036 50.4230325"></polygon>
                </g>
                <g id="Group-13" transform="translate(81.000000, 3.000000)">
                    <mask id="mask-6" fill="white">
                        <use xlink:href="#path-5"></use>
                    </mask>
                    <g id="Clip-12"></g>
                    <polygon id="Fill-11" fill="#41B883" mask="url(#mask-6)" points="25.4491529 -16.8622754 123.410959 11.3551297 75.8111499 178.107784 -22.1506849 149.890379"></polygon>
                </g>
            </g>
        </g>
    </g>
</svg>